<svg xmlns="http://www.w3.org/2000/svg" xmlns:xlink="http://www.w3.org/1999/xlink" id="Layer_1" version="1.1" viewBox="0 0 1024 1024"><defs><style>.st0{fill:url(#radial-gradient)}.st1{fill:#caccd8}.st2{fill:url(#New_Gradient_Swatch_2)}.st3{fill:#2d3748}</style><radialGradient id="New_Gradient_Swatch_2" cx="777.12" cy="1539.42" r="1594.14" data-name="New Gradient Swatch 2" fx="777.12" fy="1539.42" gradientUnits="userSpaceOnUse"><stop offset="0" stop-color="#0f2027"/><stop offset=".37" stop-color="#203a43"/><stop offset=".99" stop-color="#2c5364"/></radialGradient><radialGradient id="radial-gradient" cx="276.33" cy="240.82" r="1614.81" fx="276.33" fy="240.82" gradientUnits="userSpaceOnUse"><stop offset="0" stop-color="#fff"/><stop offset="1" stop-color="#2c3e50"/></radialGradient></defs><rect width="1024" height="1024" x="0" y="0" class="st2" rx="512" ry="512"/><path d="M836.9,554.01c0,170.33-145.46,308.41-324.9,308.41s-324.9-138.08-324.9-308.41,145.47-308.42,324.9-308.42c1.1,0,2.2,0,3.29.02,16.95.16,27.69,18.28,19.57,33.16-14.59,26.72-22.86,57.25-22.86,89.67,0,105.25,87.19,190.58,194.74,190.58,35.13,0,68.09-9.11,96.55-25.04,14.98-8.39,33.56,2.14,33.61,19.31,0,.24,0,.49,0,.73Z" class="st0"/><g><path d="M345.26,485.58c18.71,8.6,38.89,14.49,59.64,11.71s38.29-14.12,51.75-29.72c3.88-4.5,4.42-11.14,0-15.56-3.97-3.97-11.66-4.52-15.56,0-10.43,12.1-23.52,21.59-39.12,23.66s-31.37-2.54-45.61-9.09c-5.39-2.48-11.85-1.53-15.05,3.95-2.77,4.74-1.48,12.56,3.95,15.05h0Z" class="st3"/><path d="M377.43,510.49c-.13-7.87.84-15.19,3.34-22.68,4.49-13.46-16.75-19.23-21.21-5.85-3.05,9.16-4.28,18.89-4.12,28.52.23,14.14,22.23,14.19,22,0h0Z" class="st3"/><path d="M422.44,510.08c-1.83-8.07-1.91-16.69-1.02-24.91.64-5.92-5.51-11-11-11-6.48,0-10.36,5.07-11,11-1.09,10.17-.45,20.79,1.81,30.76,3.12,13.8,24.34,7.96,21.21-5.85h0Z" class="st3"/><path d="M461.47,487.5c-7.18-6.61-14.03-13.53-20.58-20.77-3.98-4.41-11.51-4.05-15.56,0-4.39,4.39-4,11.14,0,15.56,6.54,7.24,13.4,14.16,20.58,20.77,4.37,4.02,11.23,4.32,15.56,0,4.08-4.08,4.39-11.52,0-15.56h0Z" class="st3"/></g><path d="M630.45,335.07c-3.08,1.5-1.98.84-.82.55,1.32-.33-2.75.16.09.03,2.11-.1,4.22-.24,6.33-.29,5.35-.13,10.71-.06,16.06.06s10.5.29,15.75.56c1.97.1,3.95.2,5.92.35.66.05,1.35.17,2.02.17,1.53,0-3.88-.9-.33.11l-4.41-2.57.82.68-2.57-4.41.2,1.16v-5.32c-1.58,5.61-6.23,12.23-9.45,16.43-3.6,4.71-7.46,9.07-10.63,14.11-5.01,7.95,3.23,16.19,11.29,14.69,17.96-3.34,35.09-6.71,51.44-15.27,11.41-5.97,1.31-23.24-10.09-17.27-14.68,7.68-30.54,10.25-46.66,13.25,3.76,4.9,7.53,9.79,11.29,14.69,6.76-10.74,16.18-20.03,21.08-32.48,3-7.63-.18-15.59-8.6-17.37-3.24-.68-6.75-.72-10.05-.9-8.89-.48-17.8-.74-26.71-.74-7.08,0-15.54-.68-22.07,2.5-4.85,2.37-6.17,9.27-3.59,13.68,2.9,4.95,8.81,5.96,13.68,3.59h0Z" class="st1"/><path d="M671.79,466.43c3.56-1.4,7.11-2.83,10.68-4.2,2.24-.86,4.49-1.71,6.76-2.51.99-.35,6.09-1.54,3.06-1.22l-7.5-7.5c.73,5.98-2.11,12.36-4.1,17.93-2.13,5.99-4.94,11.46-5.38,17.9-.2,2.94,2.45,6.77,5.51,7.23,7.04,1.07,11.95-2.65,17.86-6.03s11.91-6.87,17.83-10.35c8.32-4.89.78-17.86-7.57-12.95-4.52,2.65-9.04,5.29-13.58,7.9-4.03,2.32-8.59,5.97-13.08,7.19h3.99l-1.47-.22,5.51,7.23c.39-5.81,4.25-11.97,6.07-17.49,1.92-5.83,4.16-12.13,3.41-18.34-.45-3.68-3.09-7.97-7.5-7.5-8.38.89-16.71,5.41-24.49,8.46-3.76,1.47-6.41,5.03-5.24,9.23,1,3.59,5.42,6.73,9.23,5.24h0Z" class="st1"/><path d="M691.27,202.67c26.31-.15,52.62-.11,78.93.14,1.25.01,2.71.23,3.95.04,3.71.41,2.42-1.06-3.87-4.4-5.07-1.86-6.85-5.27-5.35-10.21-.48,1.97-.1.73.47-.42-.61,1.21-1.26,2.32-2,3.45-3.44,5.26-7.18,10.34-10.76,15.5-7.74,11.15-15.48,22.29-23.22,33.44-3.96,5.7-2.6,14.3,1.37,19.44,4.38,5.67,11.43,7.89,18.39,6.27,26.99-6.26,55.32-8.46,80.14-21.81,8.07-4.34,11.27-16.19,6.28-23.94-5.28-8.2-15.31-10.92-23.94-6.28-1.26.68-2.52,1.34-3.81,1.95-.88.42-1.76.82-2.65,1.21,1.68-.71,1.93-.82.75-.35-2.9.98-5.73,2.1-8.66,3.01-6.36,1.96-12.83,3.51-19.34,4.88-12.66,2.68-25.46,4.65-38.07,7.58,6.59,8.57,13.18,17.14,19.76,25.71,9.06-13.05,18.12-26.1,27.18-39.15,4.34-6.25,9.48-12.44,11.54-19.92,2.83-10.28-.31-21.53-9.68-27.32-7.7-4.76-17.71-3.66-26.38-3.73-7.89-.06-15.79-.1-23.68-.13-15.79-.05-31.57-.03-47.36.06-9.15.05-17.92,8.01-17.5,17.5s7.69,17.55,17.5,17.5h0Z" class="st1"/></svg>